# xmcd
#
# Track frame offsets: 
#        150
#        26250
#        51825
#        76654
#        92554
#        109141
#        136813
#        163078
#        181039
#        205940
#        219058
#        240702
#        270043
#
# Disc length: 3843 seconds
#
# Revision: 1
# Processed by: cddbd v1.5.2PL0 Copyright (c) Steve Scherf et al.
# Submitted via: ExactAudioCopy v0.99pb4
#
DISCID=950f010d
DTITLE=Henry Red Allen - Quadromania [CD4]
DYEAR=2005
DGENRE=Jazz
TTITLE0=Struttin' With Some Barbecue
TTITLE1=Squeeze Me
TTITLE2=Love Is Just Around The Corner
TTITLE3=Body And Soul
TTITLE4=Sweet Sue (Just You)
TTITLE5=Snag It
TTITLE6=I Ain't Got Nobody
TTITLE7=St. James Infirmary
TTITLE8=Ride, Red, Ride
TTITLE9=Eh, La Bas
TTITLE10=Ain't She Sweet
TTITLE11=Beale Street Blues
TTITLE12=Clarinet Marmalade
EXTD=
EXTT0=
EXTT1=
EXTT2=
EXTT3=
EXTT4=
EXTT5=
EXTT6=
EXTT7=
EXTT8=
EXTT9=
EXTT10=
EXTT11=
EXTT12=
PLAYORDER=
